<svg width="64" height="64" viewBox="0 0 64 64" fill="none" xmlns="http://www.w3.org/2000/svg">
<g clip-path="url(#clip0_9_74)">
<path d="M14.016 0H49.984C57.725 0 64 6.275 64 14.016V49.984C64 57.725 57.725 64 49.984 64H14.016C6.275 64 0 57.725 0 49.984V14.016C0 6.275 6.275 0 14.016 0Z" fill="url(#paint0_linear_9_74)"/>
<path d="M20.5104 46.4524L20.5164 46.4544L18.3281 50.2444C17.5294 51.6279 15.7604 52.1019 14.3769 51.3032C12.9936 50.5044 12.5194 48.7354 13.3181 47.3519L14.9301 44.5599L15.0849 44.2919C15.3611 43.8949 16.0429 43.2094 17.4066 43.3384C17.4066 43.3384 20.6159 43.6867 20.8481 45.3547C20.8481 45.3547 20.8796 45.9034 20.5104 46.4524ZM51.5461 36.7724H44.7226C44.2579 36.7412 44.0551 36.5752 43.9751 36.4787L43.9701 36.4699L36.6659 23.8184L36.6564 23.8247L36.2184 23.1967C35.5004 22.0987 34.3604 24.9067 34.3604 24.9067C32.9991 28.0357 34.5536 31.5929 35.0954 32.6682L45.2409 50.2407C46.0394 51.6239 47.8084 52.0982 49.1921 51.2992C50.5754 50.5004 51.0496 48.7314 50.2506 47.3479L47.7139 42.9539C47.6646 42.8474 47.5791 42.5584 48.0994 42.5572H51.5461C53.1436 42.5572 54.4386 41.2622 54.4386 39.6647C54.4386 38.0672 53.1436 36.7724 51.5461 36.7724ZM38.2926 40.7044C38.2926 40.7044 38.6569 42.5572 37.2476 42.5572H12.0229C10.4254 42.5572 9.13037 41.2622 9.13037 39.6647C9.13037 38.0672 10.4254 36.7722 12.0229 36.7722H18.5079C19.5549 36.7117 19.8029 36.1072 19.8029 36.1072L19.8089 36.1102L28.2739 21.4482L28.2714 21.4477C28.4256 21.1644 28.2971 20.8967 28.2749 20.8544L25.4791 16.0122C24.6804 14.6289 25.1544 12.8597 26.5379 12.0612C27.9214 11.2624 29.6904 11.7362 30.4891 13.1197L31.7856 15.3654L33.0799 13.1237C33.8786 11.7404 35.6476 11.2662 37.0311 12.0652C38.4146 12.8639 38.8886 14.6327 38.0899 16.0162L26.3104 36.4187C26.2589 36.5429 26.2431 36.7379 26.6264 36.7722H33.6674L33.6689 36.8409C33.6689 36.8409 37.7384 36.9042 38.2926 40.7044Z" fill="white"/>
</g>
<defs>
<linearGradient id="paint0_linear_9_74" x1="32" y1="0" x2="32" y2="64" gradientUnits="userSpaceOnUse">
<stop stop-color="#17C9FB"/>
<stop offset="1" stop-color="#1A74E8"/>
</linearGradient>
<clipPath id="clip0_9_74">
<rect width="64" height="64" fill="white"/>
</clipPath>
</defs>
</svg>
