<svg width="17" height="17" viewBox="0 0 17 17" fill="none" xmlns="http://www.w3.org/2000/svg">
<path fill-rule="evenodd" clip-rule="evenodd" d="M8.89981 17C11.0481 17 13.1083 16.1467 14.6274 14.6276C16.1464 13.1086 16.9998 11.0483 16.9998 8.90005C16.9998 6.7518 16.1464 4.69153 14.6274 3.17248C13.1083 1.65344 11.0481 0.800049 8.89981 0.800049C6.75155 0.800049 4.69128 1.65344 3.17224 3.17248C1.6532 4.69153 0.799805 6.7518 0.799805 8.90005C0.799805 11.0483 1.6532 13.1086 3.17224 14.6276C4.69128 16.1467 6.75155 17 8.89981 17ZM9.91231 4.85005C9.91231 4.58152 9.80563 4.32398 9.61575 4.1341C9.42587 3.94422 9.16834 3.83755 8.89981 3.83755C8.63127 3.83755 8.37374 3.94422 8.18386 4.1341C7.99398 4.32398 7.88731 4.58152 7.88731 4.85005V8.90005C7.88736 9.16856 7.99407 9.42605 8.18397 9.61589L11.0473 12.4802C11.1414 12.5743 11.2531 12.6489 11.376 12.6999C11.4989 12.7508 11.6306 12.777 11.7637 12.777C11.8967 12.777 12.0284 12.7508 12.1513 12.6999C12.2743 12.6489 12.3859 12.5743 12.48 12.4802C12.5741 12.3862 12.6487 12.2745 12.6996 12.1516C12.7505 12.0287 12.7767 11.8969 12.7767 11.7639C12.7767 11.6309 12.7505 11.4991 12.6996 11.3762C12.6487 11.2533 12.5741 11.1416 12.48 11.0476L9.91231 8.48087V4.85005Z" fill="#023047"/>
</svg>
