<svg width="18" height="18" viewBox="0 0 18 18" fill="none" xmlns="http://www.w3.org/2000/svg">
<path d="M15.6726 2.3274C15.3351 1.98995 14.8773 1.80038 14.4 1.80038C13.9228 1.80038 13.465 1.98995 13.1274 2.3274L6.30005 9.1548V11.7H8.84525L15.6726 4.8726C16.0101 4.53505 16.1997 4.0773 16.1997 3.6C16.1997 3.1227 16.0101 2.66495 15.6726 2.3274Z" fill="white"/>
<path fill-rule="evenodd" clip-rule="evenodd" d="M1.80005 5.4C1.80005 4.92261 1.98969 4.46477 2.32726 4.12721C2.66482 3.78964 3.12266 3.6 3.60005 3.6H7.20005C7.43874 3.6 7.66766 3.69482 7.83644 3.8636C8.00523 4.03239 8.10005 4.2613 8.10005 4.5C8.10005 4.73869 8.00523 4.96761 7.83644 5.13639C7.66766 5.30518 7.43874 5.4 7.20005 5.4H3.60005V14.4H12.6V10.8C12.6 10.5613 12.6949 10.3324 12.8637 10.1636C13.0324 9.99482 13.2614 9.9 13.5 9.9C13.7387 9.9 13.9677 9.99482 14.1364 10.1636C14.3052 10.3324 14.4 10.5613 14.4 10.8V14.4C14.4 14.8774 14.2104 15.3352 13.8728 15.6728C13.5353 16.0104 13.0774 16.2 12.6 16.2H3.60005C3.12266 16.2 2.66482 16.0104 2.32726 15.6728C1.98969 15.3352 1.80005 14.8774 1.80005 14.4V5.4Z" fill="white"/>
</svg>
