<svg width="60" height="64" viewBox="0 0 60 64" fill="none" xmlns="http://www.w3.org/2000/svg">
<g clip-path="url(#clip0_9_77)">
<path d="M44.1023 41.7809C51.6842 37.6179 57.4318 34.4457 57.9272 34.199C59.512 33.3563 61.1487 31.1256 57.9272 29.3929C56.8871 28.848 51.2871 25.7746 44.1023 21.811L34.1421 31.87L44.1023 41.7807V41.7809Z" fill="#FFD900"/>
<path d="M34.1421 31.8701L2.42773 63.8334C3.17214 63.932 4.01255 63.7346 5.00338 63.1899C7.08362 62.0513 29.1361 50.0083 44.1022 41.7833L34.1421 31.8701Z" fill="#F43249"/>
<path d="M34.142 31.8701L44.1022 21.8606C44.1022 21.8606 7.23401 1.74012 5.00335 0.552378C4.16294 0.0546264 3.22116 -0.0932276 2.37842 0.0546264L34.142 31.8701Z" fill="#00EE76"/>
<path d="M34.1421 31.8702L2.37851 0.0546875C1.0894 0.352731 0 1.49165 0 3.82088V60.0673C0 62.1992 0.842978 63.7347 2.4278 63.8828L34.1421 31.8702Z" fill="#00D3FF"/>
</g>
<defs>
<clipPath id="clip0_9_77">
<rect width="59.7956" height="64" fill="white"/>
</clipPath>
</defs>
</svg>
