<svg width="31" height="18" viewBox="0 0 31 18" fill="none" xmlns="http://www.w3.org/2000/svg">
<path d="M2.50949 18C2.03504 18 1.63762 17.856 1.31723 17.568C0.995716 17.281 0.834961 16.925 0.834961 16.5C0.834961 16.075 0.995716 15.719 1.31723 15.432C1.63762 15.144 2.03504 15 2.50949 15H29.3019C29.7764 15 30.1738 15.144 30.4942 15.432C30.8157 15.719 30.9765 16.075 30.9765 16.5C30.9765 16.925 30.8157 17.281 30.4942 17.568C30.1738 17.856 29.7764 18 29.3019 18H2.50949ZM2.50949 10.5C2.03504 10.5 1.63762 10.356 1.31723 10.068C0.995716 9.781 0.834961 9.425 0.834961 9C0.834961 8.575 0.995716 8.2185 1.31723 7.9305C1.63762 7.6435 2.03504 7.5 2.50949 7.5H29.3019C29.7764 7.5 30.1738 7.6435 30.4942 7.9305C30.8157 8.2185 30.9765 8.575 30.9765 9C30.9765 9.425 30.8157 9.781 30.4942 10.068C30.1738 10.356 29.7764 10.5 29.3019 10.5H2.50949ZM2.50949 3C2.03504 3 1.63762 2.8565 1.31723 2.5695C0.995716 2.2815 0.834961 1.925 0.834961 1.5C0.834961 1.075 0.995716 0.7185 1.31723 0.4305C1.63762 0.1435 2.03504 0 2.50949 0H29.3019C29.7764 0 30.1738 0.1435 30.4942 0.4305C30.8157 0.7185 30.9765 1.075 30.9765 1.5C30.9765 1.925 30.8157 2.2815 30.4942 2.5695C30.1738 2.8565 29.7764 3 29.3019 3H2.50949Z" fill="white"/>
</svg>
