<svg width="41" height="36" viewBox="0 0 41 36" fill="none" xmlns="http://www.w3.org/2000/svg">
<path d="M7.50949 27C7.03504 27 6.63762 26.856 6.31723 26.568C5.99572 26.281 5.83496 25.925 5.83496 25.5C5.83496 25.075 5.99572 24.719 6.31723 24.432C6.63762 24.144 7.03504 24 7.50949 24H34.3019C34.7764 24 35.1738 24.144 35.4942 24.432C35.8157 24.719 35.9765 25.075 35.9765 25.5C35.9765 25.925 35.8157 26.281 35.4942 26.568C35.1738 26.856 34.7764 27 34.3019 27H7.50949ZM7.50949 19.5C7.03504 19.5 6.63762 19.356 6.31723 19.068C5.99572 18.781 5.83496 18.425 5.83496 18C5.83496 17.575 5.99572 17.2185 6.31723 16.9305C6.63762 16.6435 7.03504 16.5 7.50949 16.5H34.3019C34.7764 16.5 35.1738 16.6435 35.4942 16.9305C35.8157 17.2185 35.9765 17.575 35.9765 18C35.9765 18.425 35.8157 18.781 35.4942 19.068C35.1738 19.356 34.7764 19.5 34.3019 19.5H7.50949ZM7.50949 12C7.03504 12 6.63762 11.8565 6.31723 11.5695C5.99572 11.2815 5.83496 10.925 5.83496 10.5C5.83496 10.075 5.99572 9.7185 6.31723 9.4305C6.63762 9.1435 7.03504 9 7.50949 9H34.3019C34.7764 9 35.1738 9.1435 35.4942 9.4305C35.8157 9.7185 35.9765 10.075 35.9765 10.5C35.9765 10.925 35.8157 11.2815 35.4942 11.5695C35.1738 11.8565 34.7764 12 34.3019 12H7.50949Z" fill="white"/>
</svg>
