<svg width="121" height="36" viewBox="0 0 121 36" fill="none" xmlns="http://www.w3.org/2000/svg">
<path d="M0.692734 20.7149L4.64388 17.2919L5.87901 18.527C5.87901 18.527 3.40876 20.7502 3.16172 20.9973C2.91467 21.2443 2.66762 21.7384 3.16172 22.2324C3.65581 22.7265 5.13793 23.9616 5.13793 23.9616L3.90284 25.4438L0.692734 22.6911C-0.182935 21.8759 -0.246535 21.4398 0.692734 20.7149Z" fill="white"/>
<path d="M47.9704 9.38702L44.265 14.8216C40.424 11.9774 38.9985 10.1215 35.0899 10.6222C27.7064 11.568 23.7265 30.1373 36.325 29.6432C38.2262 29.5687 42.5358 26.9259 42.5358 26.9259L45.2531 32.6075C32.6322 38.7928 24.6895 35.0778 22.2796 29.6432C19.8697 24.2086 19.2803 18.527 24.7147 10.3751C30.1492 2.22322 40.1079 3.68463 47.9704 9.38702Z" fill="white"/>
<path d="M10.8811 9.88108H16.3157V12.3513C18.9851 10.1757 20.4958 9.40241 23.2324 9.38702V14.8216C19.5587 15.2546 17.3038 16.0567 16.3157 17.7859C15.3276 19.5151 14.3394 32.1135 14.3394 32.1135H7.91675L10.8811 9.88108Z" fill="white"/>
<path fill-rule="evenodd" clip-rule="evenodd" d="M50.592 32.3605C59.2285 33.0587 63.0037 30.8783 63.9314 26.4319C65.5477 15.6229 65.6685 10.6521 60.226 9.63404C53.7618 8.43482 49.0495 8.64593 47.3806 15.0686C45.7117 21.4913 44.037 31.7744 50.592 32.3605ZM52.3831 18.7466C50.2627 25.4057 52.6301 28.3532 55.8415 27.3925C59.0529 26.4318 59.7954 19.4602 59.0529 16.7704C58.3103 14.0805 53.52 14.5956 52.3831 18.7466Z" fill="white"/>
<path fill-rule="evenodd" clip-rule="evenodd" d="M87.3992 0H80.9765L80.2354 10.8692C73.0716 8.89297 70.3543 10.8692 70.3543 10.8692C70.3543 10.8692 67.8841 12.1043 66.8959 16.7978C66.8959 16.7978 66.1549 23.2205 65.9078 27.173C65.6608 31.1254 69.6132 32.3605 69.6132 32.3605C71.6443 32.7759 73.0716 32.8546 74.5538 32.3605C76.036 31.8665 77.093 31.4752 78.5062 29.6432V32.3605H83.6938L87.3992 0ZM78.7594 20.443C78.5788 22.1273 78.3952 23.8391 78.2593 24.9497C77.9854 27.1876 71.5132 27.914 71.5896 26.1848C71.666 24.4556 72.0838 20.5032 72.8247 17.5389C73.5657 14.5746 79.4943 14.0805 79.2474 16.0567C79.1231 17.0522 78.9428 18.7334 78.7594 20.443Z" fill="white"/>
<path fill-rule="evenodd" clip-rule="evenodd" d="M92.3397 22.9735H105.432C105.432 22.9735 106.173 17.0449 105.926 14.5746C105.679 12.1044 103.648 9.55021 100.245 9.38705C98.4696 9.30196 97.7702 9.26234 97.071 9.26647C96.4294 9.27026 95.788 9.31089 94.3159 9.38705C91.2397 9.5462 87.6461 13.0924 86.9051 16.3038C86.1642 19.5151 86.1641 27.667 86.1641 27.667C86.1641 27.667 86.1641 32.1135 91.3516 32.6076C96.5392 33.1016 99.909 32.1728 103.703 29.3962L101.727 24.9497C99.2214 26.7546 94.81 27.667 93.8219 27.173C92.8338 26.6789 92.1102 26.0162 92.3397 22.9735ZM92.8338 18.7741H99.2565C99.2585 18.6598 99.2606 18.5482 99.2627 18.4393C99.3166 15.5973 99.336 14.5746 96.5392 14.5746C93.6352 14.5746 93.2712 15.814 92.8338 18.7741Z" fill="white"/>
<path d="M115.807 16.0568L113.584 14.8216L107.161 26.6789L109.631 27.667L115.807 16.0568Z" fill="white"/>
<path d="M117.536 18.28L115.807 20.2562C115.807 20.2562 118.277 22.0291 118.277 22.2324C118.277 22.4358 115.066 24.4557 115.066 24.4557L116.301 26.1849C116.301 26.1849 121.181 22.9735 120.995 22.2324C120.808 21.4913 117.536 18.28 117.536 18.28Z" fill="white"/>
</svg>
