<svg width="121" height="36" viewBox="0 0 121 36" fill="none" xmlns="http://www.w3.org/2000/svg">
<path d="M0.692673 20.7149L4.64382 17.2919L5.87895 18.527C5.87895 18.527 3.4087 20.7502 3.16166 20.9973C2.91461 21.2443 2.66756 21.7384 3.16166 22.2324C3.65575 22.7265 5.13787 23.9616 5.13787 23.9616L3.90278 25.4438L0.692673 22.6911C-0.182996 21.8759 -0.246596 21.4398 0.692673 20.7149Z" fill="#3F4A6F"/>
<path d="M47.9703 9.38702L44.2649 14.8216C40.4239 11.9774 38.9984 10.1215 35.0898 10.6222C27.7063 11.568 23.7264 30.1373 36.3249 29.6432C38.2262 29.5687 42.5358 26.9259 42.5358 26.9259L45.253 32.6075C32.6321 38.7928 24.6894 35.0778 22.2795 29.6432C19.8696 24.2086 19.2802 18.527 24.7147 10.3751C30.1491 2.22322 40.1079 3.68463 47.9703 9.38702Z" fill="#39C4E9"/>
<path d="M10.8811 9.88108H16.3157V12.3513C18.9851 10.1757 20.4958 9.40241 23.2324 9.38702V14.8216C19.5587 15.2546 17.3038 16.0567 16.3157 17.7859C15.3276 19.5151 14.3394 32.1135 14.3394 32.1135H7.91675L10.8811 9.88108Z" fill="#3F4A6F"/>
<path fill-rule="evenodd" clip-rule="evenodd" d="M50.5921 32.3605C59.2286 33.0588 63.0038 30.8784 63.9315 26.4319C65.5478 15.6229 65.6687 10.6522 60.2261 9.63407C53.7619 8.43485 49.0496 8.64596 47.3807 15.0687C45.7119 21.4914 44.0371 31.7744 50.5921 32.3605ZM52.3833 18.7466C50.2628 25.4057 52.6302 28.3532 55.8416 27.3926C59.0531 26.4319 59.7956 19.4602 59.053 16.7704C58.3104 14.0805 53.5201 14.5956 52.3833 18.7466Z" fill="#445181"/>
<path fill-rule="evenodd" clip-rule="evenodd" d="M87.3991 0H80.9764L80.2354 10.8692C73.0716 8.89297 70.3543 10.8692 70.3543 10.8692C70.3543 10.8692 67.884 12.1043 66.8959 16.7978C66.8959 16.7978 66.1548 23.2205 65.9078 27.173C65.6608 31.1254 69.6132 32.3605 69.6132 32.3605C71.6443 32.7759 73.0716 32.8546 74.5538 32.3605C76.0359 31.8665 77.093 31.4752 78.5062 29.6432V32.3605H83.6937L87.3991 0ZM78.7594 20.443C78.5788 22.1273 78.3952 23.8391 78.2593 24.9497C77.9853 27.1876 71.5132 27.914 71.5896 26.1848C71.666 24.4556 72.0837 20.5032 72.8247 17.5389C73.5656 14.5746 79.4943 14.0805 79.2474 16.0567C79.123 17.0522 78.9427 18.7334 78.7594 20.443Z" fill="#445181"/>
<path fill-rule="evenodd" clip-rule="evenodd" d="M92.3396 22.9735H105.432C105.432 22.9735 106.173 17.0448 105.926 14.5746C105.679 12.1043 103.648 9.55019 100.244 9.38703C98.4695 9.30194 97.7701 9.26232 97.0709 9.26645C96.4293 9.27024 95.7879 9.31087 94.3158 9.38703C91.2396 9.54618 87.646 13.0924 86.905 16.3038C86.1641 19.5151 86.1639 27.667 86.1639 27.667C86.1639 27.667 86.164 32.1135 91.3515 32.6075C96.539 33.1016 99.9089 32.1728 103.703 29.3962L101.727 24.9497C99.2213 26.7546 94.8099 27.667 93.8218 27.173C92.8337 26.6789 92.1101 26.0162 92.3396 22.9735ZM92.8337 18.774H99.2564C99.2584 18.6597 99.2605 18.5482 99.2626 18.4393C99.3165 15.5973 99.3359 14.5746 96.5391 14.5746C93.6351 14.5746 93.2711 15.8139 92.8337 18.774Z" fill="#445181"/>
<path d="M115.807 16.0567L113.584 14.8216L107.161 26.6789L109.632 27.667L115.807 16.0567Z" fill="#445181"/>
<path d="M117.536 18.28L115.807 20.2562C115.807 20.2562 118.277 22.0291 118.277 22.2324C118.277 22.4357 115.066 24.4556 115.066 24.4556L116.301 26.1848C116.301 26.1848 121.181 22.9735 120.995 22.2324C120.808 21.4913 117.536 18.28 117.536 18.28Z" fill="#445181"/>
</svg>
