<svg width="35" height="35" viewBox="0 0 35 35" fill="none" xmlns="http://www.w3.org/2000/svg">
<path d="M18.6075 1.97695L22.2879 10.3715C22.4264 10.6874 22.6471 10.9604 22.927 11.1619C23.2069 11.3634 23.5358 11.4861 23.8793 11.5172L32.8454 12.3211C33.8598 12.4688 34.2645 13.7129 33.529 14.4293L26.775 20.1031C26.2282 20.5625 25.9793 21.2844 26.1297 21.9816L28.093 31.1719C28.2653 32.1809 27.2071 32.952 26.2993 32.4734L18.4735 27.8906C18.1783 27.7174 17.8423 27.6261 17.5 27.6261C17.1578 27.6261 16.8218 27.7174 16.5266 27.8906L8.70083 32.4707C7.79575 32.9465 6.73481 32.1781 6.90708 31.1691L8.87036 21.9789C9.01801 21.2816 8.77192 20.5598 8.22505 20.1004L1.46841 14.432C0.735593 13.7184 1.14028 12.4715 2.152 12.3238L11.118 11.5199C11.4615 11.4889 11.7904 11.3662 12.0704 11.1646C12.3503 10.9631 12.571 10.6901 12.7094 10.3742L16.3899 1.97969C16.8465 1.06094 18.1536 1.06094 18.6075 1.97695Z" fill="#FDD835"/>
<path d="M18.3396 10.8746L17.7161 4.68946C17.6915 4.34493 17.6204 3.7543 18.1728 3.7543C18.6103 3.7543 18.8482 4.66485 18.8482 4.66485L20.7185 9.63048C21.4239 11.5199 21.1341 12.168 20.4532 12.5508C19.6712 12.9883 18.5173 12.6465 18.3396 10.8746Z" fill="#FFFF8D"/>
<path d="M26.053 19.5535L31.4178 15.3672C31.683 15.1457 32.1616 14.793 31.7787 14.391C31.4752 14.0738 30.6549 14.5305 30.6549 14.5305L25.96 16.3652C24.56 16.8492 23.6303 17.5656 23.5483 18.468C23.4416 19.6711 24.5217 20.5981 26.053 19.5535Z" fill="#F4B400"/>
</svg>
